<svg width="142" height="141" viewBox="0 0 142 141" fill="none" xmlns="http://www.w3.org/2000/svg">
<path id="Star 4" d="M71 0L77.3475 41.1372L99.8783 6.13828L88.9451 46.3007L123.763 23.4917L97.4398 55.735L138.525 49.0598L101.363 67.8087L141.611 78.4215L100.036 80.4343L132.488 106.5L93.6882 91.4286L112.733 128.44L83.4177 98.8905L85.7617 140.448L71 101.53L56.2383 140.448L58.5823 98.8905L29.2672 128.44L48.3118 91.4286L9.5122 106.5L41.9642 80.4343L0.388947 78.4215L40.6372 67.8087L3.47499 49.0598L44.5602 55.735L18.2367 23.4917L53.0549 46.3007L42.1217 6.13828L64.6525 41.1372L71 0Z" fill="#E9E5D4"/>
</svg>
